<svg id="Layer_1" data-name="Layer 1" xmlns="http://www.w3.org/2000/svg" viewBox="0 0 203.16 53.23"><defs><style>.cls-1,.cls-3{fill:#fff;}.cls-2{fill:#ccc;}.cls-3{stroke:#fff;stroke-miterlimit:10;stroke-width:1.16px;}</style></defs><title>iGrant_210_55_BW</title><path class="cls-1" d="M69.8,1.77a3.85,3.85,0,0,0-5.51-.07L31.81,34.08,17.72,19.41a3.85,3.85,0,0,0-5.51-.06,4,4,0,0,0-.07,5.58L28.78,42.24l.18.2a3.84,3.84,0,0,0,4.56.76,4.15,4.15,0,0,0,1-.69l.09-.1,35.16-35A4,4,0,0,0,69.8,1.77Z" transform="translate(-4.9 -0.57)"/><path class="cls-2" d="M37.24,44.62l0,0a7.5,7.5,0,0,1-10.6,0l-.09-.09-16.3-16.3a7.49,7.49,0,0,1,10.6-10.59L31.91,28.75,48.35,12.31A5.73,5.73,0,0,0,43,8.58H10.62A5.72,5.72,0,0,0,4.9,14.29v32.3a5.71,5.71,0,0,0,5.72,5.71H43a5.7,5.7,0,0,0,5.71-5.71V33.16Z" transform="translate(-4.9 -0.57)"/><path class="cls-3" d="M78.84,14.7H77.45V11.47h1.39Zm0,23.64h-1.4V18.66h1.4Z" transform="translate(-4.9 -0.57)"/><path class="cls-3" d="M95.82,11.47h7.31V13H95.82a12,12,0,0,0-7.94,2.88,14.82,14.82,0,0,0-2.25,2.5,11.9,11.9,0,0,0-2,5.37l-.06.44v.44l-.06.25a15.47,15.47,0,0,0,.81,4.18,14.45,14.45,0,0,0,3.19,4.63l1.18.93a12.84,12.84,0,0,0,4.5,2l2.25.32a11.1,11.1,0,0,0,6.31-2V28.22h-5V26.78h6.37V38.34h-1.38v-1.5h-.06a13.29,13.29,0,0,1-4.56,1.44l-1.81.06h-.63a13.53,13.53,0,0,1-6.43-2.06,12.37,12.37,0,0,1-2.94-2.63A13.43,13.43,0,0,1,82,24.47a16,16,0,0,1,1.19-5.06,4.85,4.85,0,0,0,.62-1.19A14.3,14.3,0,0,1,91.57,12,17.49,17.49,0,0,1,95.82,11.47Z" transform="translate(-4.9 -0.57)"/><path class="cls-3" d="M107.66,21.41a6.92,6.92,0,0,1,5.43-2.69h.13v1.37h-.06a5.24,5.24,0,0,0-4.63,2.44,6.42,6.42,0,0,0-.81,3.69V38.34h-1.44V18.66h1.38Z" transform="translate(-4.9 -0.57)"/><path class="cls-3" d="M125.93,18.72q5.94,0,8.82,4.44v-4.5h1.37V38.34h-1.37V34a9.74,9.74,0,0,1-5.44,4,8.69,8.69,0,0,1-2.19.37h-.56a10.18,10.18,0,0,1-6.12-1.75,9,9,0,0,1-3.5-4.75,12.15,12.15,0,0,1-.57-3.37,11.81,11.81,0,0,1,1.25-4.94,9.59,9.59,0,0,1,5.75-4.44A16.13,16.13,0,0,1,125.93,18.72Zm-8,9.56v.13l-.07.06.07.06v.25a7.66,7.66,0,0,0,4.18,7.06,9.15,9.15,0,0,0,3.94,1h.38a8.46,8.46,0,0,0,6.49-3,9.11,9.11,0,0,0,1.75-5.37,8.11,8.11,0,0,0-3.06-6.5,8.89,8.89,0,0,0-5.18-1.75h-.38a8.94,8.94,0,0,0-5.81,2.31A8.23,8.23,0,0,0,117.94,28.28Z" transform="translate(-4.9 -0.57)"/><path class="cls-3" d="M140.71,23.09a11.59,11.59,0,0,1,1.69-2,8.57,8.57,0,0,1,2.25-1.43,11.23,11.23,0,0,1,5.06-1,11.55,11.55,0,0,1,5.5,1.87,9.58,9.58,0,0,1,3.56,5.31A13.07,13.07,0,0,1,159,28.9v9.44h-1.44V28.72a7.94,7.94,0,0,0-5.43-8.06,12.24,12.24,0,0,0-3-.5,10.63,10.63,0,0,0-4.19,1,8.88,8.88,0,0,0-1.81,1.31A8.22,8.22,0,0,0,141,26.34a21.18,21.18,0,0,0-.25,3.44v8.56h-1.44V18.59h1.44Z" transform="translate(-4.9 -0.57)"/><path class="cls-3" d="M163.61,18.59h8.56V20h-8.56v8.06a10.93,10.93,0,0,0,.88,3.81,10.31,10.31,0,0,0,2.68,3.32,10.22,10.22,0,0,0,5.38,1.68h.19v1.44h-.07A10.61,10.61,0,0,1,164.8,35a11.2,11.2,0,0,1-2.62-7.56v-16h1.43Z" transform="translate(-4.9 -0.57)"/><path class="cls-3" d="M175.89,35.09h1.37v3.25h-1.37Z" transform="translate(-4.9 -0.57)"/><path class="cls-3" d="M181.81,14.7h-1.39V11.47h1.39Zm0,23.64h-1.41V18.66h1.41Z" transform="translate(-4.9 -0.57)"/><path class="cls-3" d="M194.6,18.72a12.08,12.08,0,0,1,5.63,1.44A8.9,8.9,0,0,1,204.16,25a9.43,9.43,0,0,1,.57,3.19V29A10.12,10.12,0,0,1,203,34.53,8.39,8.39,0,0,1,200.16,37a6.94,6.94,0,0,1-3.24,1.18c0,.13-.84.19-2.5.19h-.13a10,10,0,0,1-5.37-1.75A9.55,9.55,0,0,1,185,28.47a10.88,10.88,0,0,1,1.62-5.56A9.84,9.84,0,0,1,194.6,18.72Zm-8.12,9.87a8.51,8.51,0,0,0,2,5.56,8.83,8.83,0,0,0,3.37,2.25,11.38,11.38,0,0,0,2.88.5H195a9.5,9.5,0,0,0,5.31-1.81,8.33,8.33,0,0,0,2.06-2.62,10,10,0,0,0,.88-4,9.84,9.84,0,0,0-.94-3.94,7.84,7.84,0,0,0-4.25-3.69,11.5,11.5,0,0,0-3.18-.62,10.16,10.16,0,0,0-4.5,1.19,8,8,0,0,0-3.32,3.81A11.76,11.76,0,0,0,186.48,28.59Z" transform="translate(-4.9 -0.57)"/><path class="cls-1" d="M77.72,51.41V48l-3.13-4.69H75.9l1.6,2.45c.29.46.57.92.82,1.38.25-.43.54-.91.89-1.44l1.58-2.39H82L78.8,48v3.44Z" transform="translate(-4.9 -0.57)"/><path class="cls-1" d="M82.31,48.46A3.07,3.07,0,0,1,83.22,46a2.79,2.79,0,0,1,1.86-.65,2.62,2.62,0,0,1,2,.79,3,3,0,0,1,.77,2.2,3.85,3.85,0,0,1-.34,1.79,2.41,2.41,0,0,1-1,1,2.91,2.91,0,0,1-1.42.36,2.64,2.64,0,0,1-2-.79A3.17,3.17,0,0,1,82.31,48.46Zm1,0a2.52,2.52,0,0,0,.49,1.7,1.65,1.65,0,0,0,2.48,0,2.57,2.57,0,0,0,.5-1.73,2.41,2.41,0,0,0-.5-1.65,1.56,1.56,0,0,0-1.23-.57,1.61,1.61,0,0,0-1.25.56A2.51,2.51,0,0,0,83.34,48.46Z" transform="translate(-4.9 -0.57)"/><path class="cls-1" d="M93.71,51.41v-.87a2.13,2.13,0,0,1-1.86,1,2.29,2.29,0,0,1-1-.2,1.62,1.62,0,0,1-.67-.5,2,2,0,0,1-.31-.74,5.12,5.12,0,0,1-.06-.93V45.52h1v3.27a5.87,5.87,0,0,0,.06,1.05,1.11,1.11,0,0,0,.4.62,1.24,1.24,0,0,0,.76.22,1.56,1.56,0,0,0,.84-.23,1.29,1.29,0,0,0,.56-.62,3.16,3.16,0,0,0,.16-1.15V45.52h1v5.89Z" transform="translate(-4.9 -0.57)"/><path class="cls-1" d="M97,51.41V45.52h.9v.89a2.38,2.38,0,0,1,.64-.82,1,1,0,0,1,.64-.2,1.9,1.9,0,0,1,1,.32l-.34.92a1.48,1.48,0,0,0-.73-.21.9.9,0,0,0-.59.2,1.05,1.05,0,0,0-.37.54A4,4,0,0,0,98,48.33v3.08Z" transform="translate(-4.9 -0.57)"/><path class="cls-1" d="M109.49,51.41v-.74a1.85,1.85,0,0,1-1.65.87,2.4,2.4,0,0,1-1.3-.38,2.58,2.58,0,0,1-.91-1.09,3.69,3.69,0,0,1-.33-1.6,4.11,4.11,0,0,1,.3-1.6,2.29,2.29,0,0,1,2.19-1.48,1.93,1.93,0,0,1,.95.22,2,2,0,0,1,.68.59V43.28h1v8.13Zm-3.16-2.94a2.54,2.54,0,0,0,.48,1.69,1.41,1.41,0,0,0,2.23,0,2.45,2.45,0,0,0,.46-1.64,2.78,2.78,0,0,0-.46-1.77,1.44,1.44,0,0,0-1.15-.57,1.36,1.36,0,0,0-1.11.55A2.65,2.65,0,0,0,106.33,48.47Z" transform="translate(-4.9 -0.57)"/><path class="cls-1" d="M116.68,50.68a3.67,3.67,0,0,1-1.07.67,3.07,3.07,0,0,1-1.1.19,2.15,2.15,0,0,1-1.49-.47,1.56,1.56,0,0,1-.52-1.21,1.62,1.62,0,0,1,.19-.79,1.71,1.71,0,0,1,.52-.58,2.36,2.36,0,0,1,.72-.32,4.86,4.86,0,0,1,.88-.15,8.74,8.74,0,0,0,1.78-.35c0-.13,0-.22,0-.26a1.14,1.14,0,0,0-.28-.86,1.72,1.72,0,0,0-1.14-.34,1.79,1.79,0,0,0-1,.25,1.55,1.55,0,0,0-.5.87l-1-.13a2.35,2.35,0,0,1,.44-1,1.78,1.78,0,0,1,.88-.59,3.87,3.87,0,0,1,1.33-.21,3.75,3.75,0,0,1,1.23.17,1.66,1.66,0,0,1,.69.45,1.58,1.58,0,0,1,.31.68,5,5,0,0,1,0,.92v1.33a12.24,12.24,0,0,0,.07,1.76,2.08,2.08,0,0,0,.25.71h-1A2,2,0,0,1,116.68,50.68Zm-.09-2.23a6.89,6.89,0,0,1-1.63.38,4,4,0,0,0-.87.2.79.79,0,0,0-.39.33.88.88,0,0,0,.16,1.14,1.35,1.35,0,0,0,.89.26,2,2,0,0,0,1-.25,1.57,1.57,0,0,0,.66-.69,2.39,2.39,0,0,0,.16-1Z" transform="translate(-4.9 -0.57)"/><path class="cls-1" d="M122.18,50.52l.15.88a3.79,3.79,0,0,1-.76.09,1.76,1.76,0,0,1-.84-.17,1,1,0,0,1-.42-.46,3.58,3.58,0,0,1-.12-1.17V46.3h-.74v-.78h.74V44.06l1-.6v2.06h1v.78h-1v3.44a1.93,1.93,0,0,0,0,.55.39.39,0,0,0,.17.19.66.66,0,0,0,.34.08Z" transform="translate(-4.9 -0.57)"/><path class="cls-1" d="M127.85,50.68a3.63,3.63,0,0,1-1.06.67,3.12,3.12,0,0,1-1.11.19,2.18,2.18,0,0,1-1.49-.47,1.56,1.56,0,0,1-.52-1.21,1.63,1.63,0,0,1,.2-.79,1.69,1.69,0,0,1,.51-.58,2.59,2.59,0,0,1,.72-.32A5,5,0,0,1,126,48a8.89,8.89,0,0,0,1.78-.35c0-.13,0-.22,0-.26a1.1,1.1,0,0,0-.29-.86,1.68,1.68,0,0,0-1.13-.34,1.79,1.79,0,0,0-1,.25,1.49,1.49,0,0,0-.5.87l-1-.13a2.47,2.47,0,0,1,.44-1,1.83,1.83,0,0,1,.88-.59,3.93,3.93,0,0,1,1.34-.21,3.83,3.83,0,0,1,1.23.17,1.66,1.66,0,0,1,.69.45,1.58,1.58,0,0,1,.31.68,6.05,6.05,0,0,1,.05.92v1.33a14.9,14.9,0,0,0,.06,1.76,2.32,2.32,0,0,0,.25.71h-1A2.23,2.23,0,0,1,127.85,50.68Zm-.08-2.23a7,7,0,0,1-1.63.38,4,4,0,0,0-.87.2.88.88,0,0,0-.53.8.86.86,0,0,0,.3.67,1.32,1.32,0,0,0,.88.26,2,2,0,0,0,1-.25,1.57,1.57,0,0,0,.66-.69,2.39,2.39,0,0,0,.16-1Z" transform="translate(-4.9 -0.57)"/><path class="cls-1" d="M131.44,51.41V50.27h1.14v1.14a2,2,0,0,1-.23,1,1.4,1.4,0,0,1-.7.6l-.28-.43a1,1,0,0,0,.47-.41,1.7,1.7,0,0,0,.16-.77Z" transform="translate(-4.9 -0.57)"/><path class="cls-1" d="M139.15,53.68l-.11-.94a2.22,2.22,0,0,0,.57.09,1.13,1.13,0,0,0,.53-.11,1.08,1.08,0,0,0,.33-.31,5.63,5.63,0,0,0,.3-.74l.09-.25-2.23-5.9h1.07l1.23,3.41c.16.43.3.89.43,1.37a12.38,12.38,0,0,1,.41-1.35L143,45.52h1l-2.24,6a10.86,10.86,0,0,1-.56,1.34,1.94,1.94,0,0,1-.61.72,1.46,1.46,0,0,1-.82.23A2,2,0,0,1,139.15,53.68Z" transform="translate(-4.9 -0.57)"/><path class="cls-1" d="M145.35,48.46a3.07,3.07,0,0,1,.91-2.42,2.78,2.78,0,0,1,1.85-.65,2.64,2.64,0,0,1,2,.79,3.05,3.05,0,0,1,.77,2.2,3.85,3.85,0,0,1-.34,1.79,2.41,2.41,0,0,1-1,1,2.92,2.92,0,0,1-1.43.36,2.61,2.61,0,0,1-2-.79A3.17,3.17,0,0,1,145.35,48.46Zm1,0a2.52,2.52,0,0,0,.49,1.7,1.57,1.57,0,0,0,1.24.56,1.59,1.59,0,0,0,1.24-.56,2.57,2.57,0,0,0,.49-1.73,2.41,2.41,0,0,0-.49-1.65,1.57,1.57,0,0,0-1.24-.57,1.61,1.61,0,0,0-1.24.56A2.51,2.51,0,0,0,146.38,48.46Z" transform="translate(-4.9 -0.57)"/><path class="cls-1" d="M156.75,51.41v-.87a2.15,2.15,0,0,1-1.87,1,2.28,2.28,0,0,1-1-.2,1.62,1.62,0,0,1-.67-.5,1.84,1.84,0,0,1-.31-.74,5.12,5.12,0,0,1-.06-.93V45.52h1v3.27a5.87,5.87,0,0,0,.06,1.05,1.06,1.06,0,0,0,.4.62,1.21,1.21,0,0,0,.75.22,1.62,1.62,0,0,0,.85-.23,1.22,1.22,0,0,0,.55-.62,3.13,3.13,0,0,0,.17-1.15V45.52h1v5.89Z" transform="translate(-4.9 -0.57)"/><path class="cls-1" d="M160.05,51.41V45.52h.9v.89a2.51,2.51,0,0,1,.63-.82,1.08,1.08,0,0,1,.64-.2,1.91,1.91,0,0,1,1,.32l-.34.92a1.49,1.49,0,0,0-.74-.21.89.89,0,0,0-.58.2,1.07,1.07,0,0,0-.38.54,4,4,0,0,0-.16,1.17v3.08Z" transform="translate(-4.9 -0.57)"/><path class="cls-1" d="M172.55,49.25l1,.13A2.51,2.51,0,0,1,172.7,51a2.39,2.39,0,0,1-1.62.57,2.53,2.53,0,0,1-2-.79,3.18,3.18,0,0,1-.73-2.26,4.08,4.08,0,0,1,.31-1.67,2.16,2.16,0,0,1,1-1.07,2.83,2.83,0,0,1,1.4-.36,2.45,2.45,0,0,1,1.57.48,2.22,2.22,0,0,1,.78,1.38l-1,.15a1.54,1.54,0,0,0-.49-.89,1.26,1.26,0,0,0-.85-.3,1.54,1.54,0,0,0-1.22.54,2.53,2.53,0,0,0-.48,1.71,2.64,2.64,0,0,0,.46,1.72,1.48,1.48,0,0,0,1.19.54,1.41,1.41,0,0,0,1-.36A1.8,1.8,0,0,0,172.55,49.25Z" transform="translate(-4.9 -0.57)"/><path class="cls-1" d="M175.23,51.41V43.28h1V46.2a2.25,2.25,0,0,1,1.77-.81,2.27,2.27,0,0,1,1.13.26,1.48,1.48,0,0,1,.69.71,3.24,3.24,0,0,1,.21,1.32v3.73h-1V47.68a1.58,1.58,0,0,0-.32-1.09,1.2,1.2,0,0,0-.92-.34,1.55,1.55,0,0,0-.83.23,1.29,1.29,0,0,0-.56.62,2.89,2.89,0,0,0-.17,1.09v3.22Z" transform="translate(-4.9 -0.57)"/><path class="cls-1" d="M182,48.46a3,3,0,0,1,.91-2.42,2.77,2.77,0,0,1,1.85-.65,2.66,2.66,0,0,1,2,.79,3.05,3.05,0,0,1,.77,2.2,3.85,3.85,0,0,1-.34,1.79,2.41,2.41,0,0,1-1,1,2.92,2.92,0,0,1-1.43.36,2.65,2.65,0,0,1-2-.79A3.21,3.21,0,0,1,182,48.46Zm1,0a2.52,2.52,0,0,0,.49,1.7,1.56,1.56,0,0,0,1.24.56,1.59,1.59,0,0,0,1.24-.56,2.57,2.57,0,0,0,.49-1.73,2.41,2.41,0,0,0-.49-1.65,1.57,1.57,0,0,0-1.24-.57,1.59,1.59,0,0,0-1.24.56A2.51,2.51,0,0,0,183.06,48.46Z" transform="translate(-4.9 -0.57)"/><path class="cls-1" d="M189.58,44.43V43.28h1v1.15Zm0,7V45.52h1v5.89Z" transform="translate(-4.9 -0.57)"/><path class="cls-1" d="M196.79,49.25l1,.13A2.5,2.5,0,0,1,197,51a2.42,2.42,0,0,1-1.63.57,2.5,2.5,0,0,1-1.94-.79,3.19,3.19,0,0,1-.74-2.26,4.08,4.08,0,0,1,.32-1.67,2.14,2.14,0,0,1,1-1.07,2.84,2.84,0,0,1,1.41-.36,2.47,2.47,0,0,1,1.57.48,2.32,2.32,0,0,1,.78,1.38l-1,.15a1.66,1.66,0,0,0-.49-.89,1.28,1.28,0,0,0-.85-.3,1.54,1.54,0,0,0-1.23.54,2.59,2.59,0,0,0-.47,1.71,2.65,2.65,0,0,0,.45,1.72,1.49,1.49,0,0,0,1.19.54,1.39,1.39,0,0,0,1-.36A1.8,1.8,0,0,0,196.79,49.25Z" transform="translate(-4.9 -0.57)"/><path class="cls-1" d="M203.51,49.51l1,.13a2.49,2.49,0,0,1-.9,1.4,3.08,3.08,0,0,1-3.74-.29,3.14,3.14,0,0,1-.76-2.23,3.24,3.24,0,0,1,.77-2.31,2.58,2.58,0,0,1,2-.82,2.55,2.55,0,0,1,1.93.8,3.24,3.24,0,0,1,.74,2.26v.27h-4.39a2.29,2.29,0,0,0,.54,1.49,1.65,1.65,0,0,0,1.24.51,1.47,1.47,0,0,0,.93-.29A1.89,1.89,0,0,0,203.51,49.51Zm-3.28-1.61h3.29a1.89,1.89,0,0,0-.38-1.11,1.5,1.5,0,0,0-1.23-.58,1.58,1.58,0,0,0-1.16.46A1.83,1.83,0,0,0,200.23,47.9Z" transform="translate(-4.9 -0.57)"/><path class="cls-1" d="M206.93,51.41V50.27h1.14v1.14Z" transform="translate(-4.9 -0.57)"/></svg>